STARTFONT 2.1
FONT -B&H-Lucida Bright-DemiBold-I-Normal--14-140-72-72-P-84-ISO8859-1
SIZE 14 72 72
FONTBOUNDINGBOX 25 17 -8 -3

STARTPROPERTIES 22
FONTNAME_REGISTRY "-"
FOUNDRY "B&H"
FAMILY_NAME "Lucida Bright"
WEIGHT_NAME "DemiBold"
SLANT "I"
SETWIDTH_NAME "Normal"
ADD_STYLE_NAME ""
PIXEL_SIZE 14
POINT_SIZE 140
RESOLUTION_X 72
RESOLUTION_Y 72
SPACING "P"
CHARSET_REGISTRY "ISO8859"
CHARSET_ENCODING "1"
FULL_NAME "LucidaBright-DemiItalic"
AVERAGE_WIDTH 84
WEIGHT 10
X_HEIGHT 8
QUAD_WIDTH 9
DEFAULT_CHAR 32
FONT_DESCENT 3
FONT_ASCENT 14
ENDPROPERTIES

CHARS 190

STARTCHAR space
ENCODING 32
SWIDTH 333 0
DWIDTH 5 0
BBX 1 1 0 0
BITMAP
00
ENDCHAR

STARTCHAR exclam
ENCODING 33
SWIDTH 265 0
DWIDTH 4 0
BBX 4 11 1 0
BITMAP
30
30
30
20
60
60
60
40
00
C0
C0
ENDCHAR

STARTCHAR quotedbl
ENCODING 34
SWIDTH 451 0
DWIDTH 6 0
BBX 5 4 2 7
BITMAP
D8
D8
D8
90
ENDCHAR

STARTCHAR numbersign
ENCODING 35
SWIDTH 636 0
DWIDTH 9 0
BBX 9 11 1 0
BITMAP
0580
0900
0B00
7F80
1200
3400
2400
FF00
4800
5800
9000
ENDCHAR

STARTCHAR dollar
ENCODING 36
SWIDTH 636 0
DWIDTH 9 0
BBX 8 13 2 -1
BITMAP
04
1F
3B
2A
38
38
18
1C
16
96
9C
F8
20
ENDCHAR

STARTCHAR percent
ENCODING 37
SWIDTH 772 0
DWIDTH 11 0
BBX 11 11 1 0
BITMAP
3860
4880
C980
CB00
DA00
7400
09C0
1360
2240
6240
C380
ENDCHAR

STARTCHAR ampersand
ENCODING 38
SWIDTH 773 0
DWIDTH 11 0
BBX 11 11 1 0
BITMAP
0F00
1900
1900
1B00
1C00
3DE0
4C80
CE80
C700
E300
7F80
ENDCHAR

STARTCHAR quoteright
ENCODING 39
SWIDTH 265 0
DWIDTH 4 0
BBX 3 5 2 6
BITMAP
60
60
E0
40
80
ENDCHAR

STARTCHAR parenleft
ENCODING 40
SWIDTH 336 0
DWIDTH 5 0
BBX 5 13 1 -2
BITMAP
08
10
20
60
60
C0
C0
C0
C0
C0
C0
40
20
ENDCHAR

STARTCHAR parenright
ENCODING 41
SWIDTH 336 0
DWIDTH 5 0
BBX 5 13 0 -2
BITMAP
10
10
18
18
18
18
18
18
10
30
20
40
80
ENDCHAR

STARTCHAR asterisk
ENCODING 42
SWIDTH 434 0
DWIDTH 6 0
BBX 5 5 2 6
BITMAP
A8
70
78
F0
50
ENDCHAR

STARTCHAR plus
ENCODING 43
SWIDTH 636 0
DWIDTH 9 0
BBX 8 9 1 0
BITMAP
08
08
08
08
FF
10
10
10
10
ENDCHAR

STARTCHAR comma
ENCODING 44
SWIDTH 265 0
DWIDTH 4 0
BBX 3 5 0 -2
BITMAP
60
60
E0
40
C0
ENDCHAR

STARTCHAR minus
ENCODING 45
SWIDTH 636 0
DWIDTH 9 0
BBX 8 1 1 3
BITMAP
FF
ENDCHAR

STARTCHAR period
ENCODING 46
SWIDTH 265 0
DWIDTH 4 0
BBX 3 2 1 0
BITMAP
E0
C0
ENDCHAR

STARTCHAR slash
ENCODING 47
SWIDTH 515 0
DWIDTH 7 0
BBX 10 13 0 -2
BITMAP
00C0
0180
0100
0200
0600
0400
0800
0800
1000
2000
2000
4000
C000
ENDCHAR

STARTCHAR zero
ENCODING 48
SWIDTH 623 0
DWIDTH 9 0
BBX 8 11 1 0
BITMAP
1E
33
63
63
E3
C3
C3
C6
C6
CC
78
ENDCHAR

STARTCHAR one
ENCODING 49
SWIDTH 636 0
DWIDTH 9 0
BBX 6 11 2 0
BITMAP
3C
1C
18
18
18
18
18
30
30
30
FC
ENDCHAR

STARTCHAR two
ENCODING 50
SWIDTH 636 0
DWIDTH 9 0
BBX 8 11 1 0
BITMAP
1E
23
23
03
07
0C
10
20
40
FE
FE
ENDCHAR

STARTCHAR three
ENCODING 51
SWIDTH 636 0
DWIDTH 9 0
BBX 8 11 1 0
BITMAP
3E
27
23
02
04
3C
0E
06
86
8C
F8
ENDCHAR

STARTCHAR four
ENCODING 52
SWIDTH 636 0
DWIDTH 9 0
BBX 8 11 1 0
BITMAP
03
07
0A
16
26
66
C6
FF
04
0C
1E
ENDCHAR

STARTCHAR five
ENCODING 53
SWIDTH 636 0
DWIDTH 9 0
BBX 8 11 2 0
BITMAP
3F
20
20
20
78
0E
06
06
86
8C
F8
ENDCHAR

STARTCHAR six
ENCODING 54
SWIDTH 636 0
DWIDTH 9 0
BBX 8 11 2 0
BITMAP
0F
31
61
60
FE
E6
C3
C6
C6
46
38
ENDCHAR

STARTCHAR seven
ENCODING 55
SWIDTH 636 0
DWIDTH 9 0
BBX 8 11 2 0
BITMAP
7F
7E
02
04
08
18
30
60
60
C0
C0
ENDCHAR

STARTCHAR eight
ENCODING 56
SWIDTH 636 0
DWIDTH 9 0
BBX 8 11 1 0
BITMAP
1E
33
33
33
3C
2E
47
C3
C3
E6
7C
ENDCHAR

STARTCHAR nine
ENCODING 57
SWIDTH 636 0
DWIDTH 9 0
BBX 8 11 1 0
BITMAP
1E
33
63
63
63
67
3B
06
86
8C
F8
ENDCHAR

STARTCHAR colon
ENCODING 58
SWIDTH 265 0
DWIDTH 4 0
BBX 4 8 1 0
BITMAP
70
60
00
00
00
00
C0
C0
ENDCHAR

STARTCHAR semicolon
ENCODING 59
SWIDTH 265 0
DWIDTH 4 0
BBX 4 10 0 -2
BITMAP
30
30
00
00
00
00
60
E0
40
C0
ENDCHAR

STARTCHAR less
ENCODING 60
SWIDTH 636 0
DWIDTH 9 0
BBX 9 8 1 0
BITMAP
0080
0700
1C00
E000
6000
1800
0600
0300
ENDCHAR

STARTCHAR equal
ENCODING 61
SWIDTH 636 0
DWIDTH 9 0
BBX 9 3 1 2
BITMAP
FF80
0000
FF00
ENDCHAR

STARTCHAR greater
ENCODING 62
SWIDTH 636 0
DWIDTH 9 0
BBX 9 8 0 0
BITMAP
6000
3000
0C00
0300
0380
1C00
6000
8000
ENDCHAR

STARTCHAR question
ENCODING 63
SWIDTH 493 0
DWIDTH 7 0
BBX 6 11 2 0
BITMAP
78
CC
8C
0C
18
30
60
60
00
C0
C0
ENDCHAR

STARTCHAR at
ENCODING 64
SWIDTH 861 0
DWIDTH 12 0
BBX 11 11 2 0
BITMAP
0F80
30C0
2020
4720
9920
9320
9320
B640
9B80
4200
3C00
ENDCHAR

STARTCHAR A
ENCODING 65
SWIDTH 765 0
DWIDTH 11 0
BBX 11 11 0 0
BITMAP
0300
0300
0700
0580
0980
1980
1180
3F80
21C0
40C0
E1E0
ENDCHAR

STARTCHAR B
ENCODING 66
SWIDTH 651 0
DWIDTH 9 0
BBX 9 11 0 0
BITMAP
3F00
1980
1180
1180
3300
3E00
3300
3380
2380
6300
FE00
ENDCHAR

STARTCHAR C
ENCODING 67
SWIDTH 740 0
DWIDTH 10 0
BBX 10 11 2 0
BITMAP
0FC0
18C0
3080
6000
E000
C000
C000
C000
E000
6100
3E00
ENDCHAR

STARTCHAR D
ENCODING 68
SWIDTH 822 0
DWIDTH 12 0
BBX 11 11 0 0
BITMAP
3FC0
18E0
1860
1860
3060
3060
3060
3060
60C0
6180
FF00
ENDCHAR

STARTCHAR E
ENCODING 69
SWIDTH 630 0
DWIDTH 9 0
BBX 9 11 0 0
BITMAP
3F80
1880
1800
1800
3100
3E00
3200
3000
3000
6100
FF00
ENDCHAR

STARTCHAR F
ENCODING 70
SWIDTH 602 0
DWIDTH 8 0
BBX 9 11 0 0
BITMAP
3F80
1880
1800
1000
3100
3E00
3200
3000
3000
7000
F800
ENDCHAR

STARTCHAR G
ENCODING 71
SWIDTH 780 0
DWIDTH 11 0
BBX 10 11 2 0
BITMAP
0FC0
18C0
3080
6000
E000
C000
C7C0
C300
C300
6300
3E00
ENDCHAR

STARTCHAR H
ENCODING 72
SWIDTH 827 0
DWIDTH 12 0
BBX 13 11 0 0
BITMAP
3CF8
1860
1860
1060
3060
3FC0
30C0
30C0
30C0
60C0
F3E0
ENDCHAR

STARTCHAR I
ENCODING 73
SWIDTH 372 0
DWIDTH 5 0
BBX 6 11 0 0
BITMAP
3C
18
18
18
30
30
30
30
30
60
F0
ENDCHAR

STARTCHAR J
ENCODING 74
SWIDTH 478 0
DWIDTH 7 0
BBX 9 13 0 -2
BITMAP
0F80
0600
0600
0600
0400
0C00
0C00
0C00
0C00
0C00
9800
9800
F000
ENDCHAR

STARTCHAR K
ENCODING 75
SWIDTH 746 0
DWIDTH 10 0
BBX 11 11 0 0
BITMAP
3CE0
18C0
1980
1200
3400
3C00
3600
3700
2300
6180
F3C0
ENDCHAR

STARTCHAR L
ENCODING 76
SWIDTH 611 0
DWIDTH 9 0
BBX 8 11 0 0
BITMAP
3C
18
18
18
30
30
30
30
31
61
FF
ENDCHAR

STARTCHAR M
ENCODING 77
SWIDTH 926 0
DWIDTH 13 0
BBX 14 11 0 0
BITMAP
381C
1838
1850
1C70
2CB0
2CB0
2530
2720
2660
4460
E0F0
ENDCHAR

STARTCHAR N
ENCODING 78
SWIDTH 797 0
DWIDTH 11 0
BBX 12 11 0 0
BITMAP
3870
1820
1C20
1C40
2640
2640
2340
2340
21C0
4180
E080
ENDCHAR

STARTCHAR O
ENCODING 79
SWIDTH 831 0
DWIDTH 12 0
BBX 11 11 2 0
BITMAP
0F80
18C0
30E0
6060
6060
C060
C0C0
C0C0
C180
6300
3C00
ENDCHAR

STARTCHAR P
ENCODING 80
SWIDTH 628 0
DWIDTH 9 0
BBX 9 11 0 0
BITMAP
3F80
1980
1980
1980
3180
3300
3E00
3000
3000
6000
F800
ENDCHAR

STARTCHAR Q
ENCODING 81
SWIDTH 835 0
DWIDTH 12 0
BBX 12 14 2 -3
BITMAP
0F80
18C0
30C0
60E0
60E0
C0E0
C0C0
C0C0
C180
6380
3F00
0400
0300
00F0
ENDCHAR

STARTCHAR R
ENCODING 82
SWIDTH 711 0
DWIDTH 10 0
BBX 10 11 0 0
BITMAP
3F80
19C0
19C0
1180
3380
3E00
3600
3300
3300
6380
F180
ENDCHAR

STARTCHAR S
ENCODING 83
SWIDTH 587 0
DWIDTH 8 0
BBX 8 11 1 0
BITMAP
1F
31
31
30
38
1C
0E
06
86
CE
F8
ENDCHAR

STARTCHAR T
ENCODING 84
SWIDTH 716 0
DWIDTH 10 0
BBX 10 11 2 0
BITMAP
FFC0
8C40
0C00
1C00
1800
1800
1800
1800
1800
3000
7C00
ENDCHAR

STARTCHAR U
ENCODING 85
SWIDTH 775 0
DWIDTH 11 0
BBX 10 11 2 0
BITMAP
F9C0
6080
6080
6080
6100
C100
C100
C100
C300
E200
7C00
ENDCHAR

STARTCHAR V
ENCODING 86
SWIDTH 741 0
DWIDTH 10 0
BBX 11 11 2 0
BITMAP
F0E0
60C0
6080
6180
3100
3200
3200
3400
3400
1800
1800
ENDCHAR

STARTCHAR W
ENCODING 87
SWIDTH 922 0
DWIDTH 13 0
BBX 13 11 2 0
BITMAP
F218
6310
6710
6720
6B20
6B40
6B40
7380
7380
6300
6300
ENDCHAR

STARTCHAR X
ENCODING 88
SWIDTH 672 0
DWIDTH 9 0
BBX 11 11 0 0
BITMAP
3CE0
1840
0C80
0D00
0E00
0E00
0E00
1300
2300
4380
E780
ENDCHAR

STARTCHAR Y
ENCODING 89
SWIDTH 669 0
DWIDTH 9 0
BBX 10 11 2 0
BITMAP
F1C0
6180
6100
3200
3400
1800
1800
1000
3000
3000
F800
ENDCHAR

STARTCHAR Z
ENCODING 90
SWIDTH 684 0
DWIDTH 10 0
BBX 10 11 1 0
BITMAP
3FC0
2180
0300
0600
0E00
0C00
1800
3000
7000
6100
FF00
ENDCHAR

STARTCHAR bracketleft
ENCODING 91
SWIDTH 336 0
DWIDTH 5 0
BBX 6 13 1 -2
BITMAP
3C
30
30
30
20
60
60
60
60
40
C0
C0
E0
ENDCHAR

STARTCHAR backslash
ENCODING 92
SWIDTH 515 0
DWIDTH 7 0
BBX 4 13 2 -2
BITMAP
80
80
40
40
40
40
20
20
20
20
10
10
10
ENDCHAR

STARTCHAR bracketright
ENCODING 93
SWIDTH 336 0
DWIDTH 5 0
BBX 6 13 0 -2
BITMAP
3C
08
08
18
18
18
10
30
30
30
30
20
E0
ENDCHAR

STARTCHAR asciicircum
ENCODING 94
SWIDTH 636 0
DWIDTH 9 0
BBX 8 9 1 2
BITMAP
04
04
0C
12
12
22
62
41
C1
ENDCHAR

STARTCHAR underscore
ENCODING 95
SWIDTH 500 0
DWIDTH 7 0
BBX 6 1 0 -1
BITMAP
FC
ENDCHAR

STARTCHAR quoteleft
ENCODING 96
SWIDTH 265 0
DWIDTH 4 0
BBX 3 5 2 6
BITMAP
60
40
E0
C0
C0
ENDCHAR

STARTCHAR a
ENCODING 97
SWIDTH 634 0
DWIDTH 9 0
BBX 8 8 1 0
BITMAP
1F
33
63
66
C6
CE
DE
E7
ENDCHAR

STARTCHAR b
ENCODING 98
SWIDTH 633 0
DWIDTH 9 0
BBX 8 11 1 0
BITMAP
70
30
30
67
6B
73
63
63
C6
C4
F8
ENDCHAR

STARTCHAR c
ENCODING 99
SWIDTH 524 0
DWIDTH 7 0
BBX 7 8 1 0
BITMAP
1E
32
62
C0
C0
C0
E4
78
ENDCHAR

STARTCHAR d
ENCODING 100
SWIDTH 634 0
DWIDTH 9 0
BBX 9 11 1 0
BITMAP
0380
0380
0300
1F00
3300
6300
6700
C600
CE00
DE00
E700
ENDCHAR

STARTCHAR e
ENCODING 101
SWIDTH 548 0
DWIDTH 8 0
BBX 7 8 1 0
BITMAP
1C
26
66
CC
F8
C0
C6
7C
ENDCHAR

STARTCHAR f
ENCODING 102
SWIDTH 415 0
DWIDTH 6 0
BBX 8 14 1 -3
BITMAP
0F
1A
30
7C
30
30
60
60
60
60
60
C0
C0
C0
ENDCHAR

STARTCHAR g
ENCODING 103
SWIDTH 628 0
DWIDTH 9 0
BBX 9 11 1 -3
BITMAP
0F80
3300
2300
6300
6700
EF00
EE00
7600
8600
C400
F800
ENDCHAR

STARTCHAR h
ENCODING 104
SWIDTH 656 0
DWIDTH 9 0
BBX 8 11 1 0
BITMAP
70
30
30
67
6B
73
73
66
C6
C6
C7
ENDCHAR

STARTCHAR i
ENCODING 105
SWIDTH 319 0
DWIDTH 4 0
BBX 4 11 1 0
BITMAP
30
30
00
F0
60
60
60
60
C0
C0
E0
ENDCHAR

STARTCHAR j
ENCODING 106
SWIDTH 381 0
DWIDTH 5 0
BBX 8 14 0 -3
BITMAP
07
06
00
0E
06
0C
0C
0C
0C
0C
1C
98
98
F0
ENDCHAR

STARTCHAR k
ENCODING 107
SWIDTH 626 0
DWIDTH 9 0
BBX 8 11 1 0
BITMAP
70
30
30
63
66
6C
78
78
EC
CE
C7
ENDCHAR

STARTCHAR l
ENCODING 108
SWIDTH 319 0
DWIDTH 4 0
BBX 4 11 1 0
BITMAP
70
30
30
60
60
60
60
60
C0
C0
E0
ENDCHAR

STARTCHAR m
ENCODING 109
SWIDTH 969 0
DWIDTH 14 0
BBX 12 8 1 0
BITMAP
F770
6FF0
72B0
7730
6730
C630
C660
C670
ENDCHAR

STARTCHAR n
ENCODING 110
SWIDTH 656 0
DWIDTH 9 0
BBX 8 8 1 0
BITMAP
F7
6B
73
73
66
C6
C6
C7
ENDCHAR

STARTCHAR o
ENCODING 111
SWIDTH 599 0
DWIDTH 8 0
BBX 8 8 1 0
BITMAP
1E
37
63
C3
C6
C6
CC
78
ENDCHAR

STARTCHAR p
ENCODING 112
SWIDTH 639 0
DWIDTH 9 0
BBX 9 11 1 -3
BITMAP
7700
3980
3980
7300
6300
6200
6600
7800
C000
C000
C000
ENDCHAR

STARTCHAR q
ENCODING 113
SWIDTH 630 0
DWIDTH 9 0
BBX 8 11 1 -3
BITMAP
1F
23
63
67
C6
CE
DE
E6
06
0C
0C
ENDCHAR

STARTCHAR r
ENCODING 114
SWIDTH 496 0
DWIDTH 7 0
BBX 7 8 1 0
BITMAP
F6
6E
78
70
60
C0
C0
C0
ENDCHAR

STARTCHAR s
ENCODING 115
SWIDTH 479 0
DWIDTH 7 0
BBX 6 8 1 0
BITMAP
3C
64
60
30
18
8C
8C
F8
ENDCHAR

STARTCHAR t
ENCODING 116
SWIDTH 375 0
DWIDTH 5 0
BBX 5 10 1 0
BITMAP
10
60
F8
60
60
60
C0
C0
C0
70
ENDCHAR

STARTCHAR u
ENCODING 117
SWIDTH 655 0
DWIDTH 9 0
BBX 8 8 1 0
BITMAP
E7
63
62
66
CE
CE
D6
EF
ENDCHAR

STARTCHAR v
ENCODING 118
SWIDTH 584 0
DWIDTH 8 0
BBX 8 8 1 0
BITMAP
E3
63
62
32
34
38
30
30
ENDCHAR

STARTCHAR w
ENCODING 119
SWIDTH 822 0
DWIDTH 12 0
BBX 11 8 1 0
BITMAP
E260
6660
6660
2A40
3B80
3300
3300
2200
ENDCHAR

STARTCHAR x
ENCODING 120
SWIDTH 534 0
DWIDTH 7 0
BBX 7 8 1 0
BITMAP
66
32
34
18
18
6C
CC
C6
ENDCHAR

STARTCHAR y
ENCODING 121
SWIDTH 586 0
DWIDTH 8 0
BBX 10 11 0 -3
BITMAP
71C0
1880
1980
1900
1A00
1C00
1C00
0800
1000
2000
E000
ENDCHAR

STARTCHAR z
ENCODING 122
SWIDTH 567 0
DWIDTH 8 0
BBX 8 8 1 0
BITMAP
3F
46
0C
1C
18
30
62
FE
ENDCHAR

STARTCHAR braceleft
ENCODING 123
SWIDTH 361 0
DWIDTH 5 0
BBX 5 13 1 -2
BITMAP
18
30
30
30
30
20
C0
60
60
60
C0
C0
60
ENDCHAR

STARTCHAR bar
ENCODING 124
SWIDTH 253 0
DWIDTH 4 0
BBX 4 13 1 -2
BITMAP
30
20
20
20
20
60
40
40
40
40
C0
80
80
ENDCHAR

STARTCHAR braceright
ENCODING 125
SWIDTH 361 0
DWIDTH 5 0
BBX 5 13 0 -2
BITMAP
38
18
18
10
30
10
18
30
60
60
60
60
C0
ENDCHAR

STARTCHAR asciitilde
ENCODING 126
SWIDTH 636 0
DWIDTH 9 0
BBX 9 2 1 3
BITMAP
7180
8F00
ENDCHAR

STARTCHAR exclamdown
ENCODING 161
SWIDTH 265 0
DWIDTH 4 0
BBX 4 11 0 -3
BITMAP
30
30
00
20
20
60
60
60
C0
C0
C0
ENDCHAR

STARTCHAR cent
ENCODING 162
SWIDTH 636 0
DWIDTH 9 0
BBX 7 11 2 0
BITMAP
04
1E
2A
6A
48
C8
C8
D0
F0
7C
20
ENDCHAR

STARTCHAR sterling
ENCODING 163
SWIDTH 636 0
DWIDTH 9 0
BBX 8 11 1 0
BITMAP
0F
09
18
18
18
7C
30
30
20
FE
FC
ENDCHAR

STARTCHAR currency
ENCODING 164
SWIDTH 636 0
DWIDTH 9 0
BBX 10 9 0 1
BITMAP
6040
2080
1F00
3100
2100
2100
2200
7F00
C180
ENDCHAR

STARTCHAR yen
ENCODING 165
SWIDTH 636 0
DWIDTH 9 0
BBX 10 11 2 0
BITMAP
F1C0
6180
6100
3200
3400
1C00
7E00
1800
7C00
3000
7800
ENDCHAR

STARTCHAR brokenbar
ENCODING 166
SWIDTH 253 0
DWIDTH 4 0
BBX 4 13 1 -2
BITMAP
30
20
20
20
20
60
00
40
40
40
C0
80
80
ENDCHAR

STARTCHAR section
ENCODING 167
SWIDTH 636 0
DWIDTH 9 0
BBX 8 14 1 -3
BITMAP
1F
31
31
30
3C
2E
66
62
72
1C
06
86
8C
F8
ENDCHAR

STARTCHAR dieresis
ENCODING 168
SWIDTH 599 0
DWIDTH 8 0
BBX 4 1 4 10
BITMAP
D0
ENDCHAR

STARTCHAR copyright
ENCODING 169
SWIDTH 853 0
DWIDTH 12 0
BBX 11 11 2 0
BITMAP
1F00
2080
4F40
9920
9020
B020
B020
9020
5E40
2080
1F00
ENDCHAR

STARTCHAR ordfeminine
ENCODING 170
SWIDTH 468 0
DWIDTH 7 0
BBX 6 6 2 5
BITMAP
3C
6C
CC
D8
E8
DC
ENDCHAR

STARTCHAR guillemotleft
ENCODING 171
SWIDTH 527 0
DWIDTH 7 0
BBX 7 6 1 1
BITMAP
12
24
48
D8
6C
24
ENDCHAR

STARTCHAR logicalnot
ENCODING 172
SWIDTH 636 0
DWIDTH 9 0
BBX 8 3 1 2
BITMAP
FF
01
01
ENDCHAR

STARTCHAR hyphen
ENCODING 173
SWIDTH 289 0
DWIDTH 4 0
BBX 3 1 1 4
BITMAP
E0
ENDCHAR

STARTCHAR registered
ENCODING 174
SWIDTH 636 0
DWIDTH 9 0
BBX 7 7 2 4
BITMAP
38
44
BA
B2
AA
44
38
ENDCHAR

STARTCHAR macron
ENCODING 175
SWIDTH 599 0
DWIDTH 8 0
BBX 4 1 4 9
BITMAP
F0
ENDCHAR

STARTCHAR degree
ENCODING 176
SWIDTH 259 0
DWIDTH 4 0
BBX 3 3 3 8
BITMAP
E0
A0
E0
ENDCHAR

STARTCHAR plusminus
ENCODING 177
SWIDTH 636 0
DWIDTH 9 0
BBX 9 9 0 0
BITMAP
0400
0400
0400
7F80
0800
0800
0800
0000
FF00
ENDCHAR

STARTCHAR twosuperior
ENCODING 178
SWIDTH 381 0
DWIDTH 5 0
BBX 5 6 -8 5
BITMAP
70
48
18
20
40
F0
ENDCHAR

STARTCHAR threesuperior
ENCODING 179
SWIDTH 381 0
DWIDTH 5 0
BBX 4 6 -8 5
BITMAP
70
10
60
10
10
E0
ENDCHAR

STARTCHAR acute
ENCODING 180
SWIDTH 599 0
DWIDTH 8 0
BBX 4 2 5 9
BITMAP
70
C0
ENDCHAR

STARTCHAR mu
ENCODING 181
SWIDTH 687 0
DWIDTH 10 0
BBX 9 10 1 -2
BITMAP
7780
3300
7300
6300
6700
6700
6E00
F700
C000
C000
ENDCHAR

STARTCHAR paragraph
ENCODING 182
SWIDTH 636 0
DWIDTH 9 0
BBX 6 13 2 -2
BITMAP
7C
F4
E4
E8
68
28
28
28
48
48
48
50
50
ENDCHAR

STARTCHAR periodcentered
ENCODING 183
SWIDTH 636 0
DWIDTH 9 0
BBX 2 2 4 3
BITMAP
C0
C0
ENDCHAR

STARTCHAR cedilla
ENCODING 184
SWIDTH 599 0
DWIDTH 8 0
BBX 3 3 2 -3
BITMAP
40
40
E0
ENDCHAR

STARTCHAR onesuperior
ENCODING 185
SWIDTH 381 0
DWIDTH 5 0
BBX 3 6 -8 5
BITMAP
60
20
20
60
40
E0
ENDCHAR

STARTCHAR ordmasculine
ENCODING 186
SWIDTH 468 0
DWIDTH 7 0
BBX 6 5 2 6
BITMAP
3C
4C
CC
C8
F0
ENDCHAR

STARTCHAR guillemotright
ENCODING 187
SWIDTH 527 0
DWIDTH 7 0
BBX 7 6 1 1
BITMAP
48
24
36
36
48
90
ENDCHAR

STARTCHAR onequarter
ENCODING 188
SWIDTH 818 0
DWIDTH 11 0
BBX 11 11 3 0
BITMAP
6060
20C0
2080
6100
4200
E440
08C0
1940
3340
63E0
C080
ENDCHAR

STARTCHAR onehalf
ENCODING 189
SWIDTH 818 0
DWIDTH 11 0
BBX 11 11 3 0
BITMAP
6060
20C0
2080
6100
4200
E5C0
0920
1860
3080
6100
C3C0
ENDCHAR

STARTCHAR threequarters
ENCODING 190
SWIDTH 818 0
DWIDTH 11 0
BBX 11 11 3 0
BITMAP
7060
10C0
6080
1100
1200
E440
08C0
1940
3340
63E0
C040
ENDCHAR

STARTCHAR questiondown
ENCODING 191
SWIDTH 493 0
DWIDTH 7 0
BBX 6 11 0 -3
BITMAP
0C
0C
00
1C
18
30
60
C0
C4
C4
78
ENDCHAR

STARTCHAR Agrave
ENCODING 192
SWIDTH 765 0
DWIDTH 11 0
BBX 11 14 0 0
BITMAP
0300
0180
0000
0300
0300
0700
0580
0980
1980
1180
3F80
21C0
40C0
E1E0
ENDCHAR

STARTCHAR Aacute
ENCODING 193
SWIDTH 765 0
DWIDTH 11 0
BBX 11 14 0 0
BITMAP
01C0
0300
0000
0300
0300
0700
0580
0980
1980
1180
3F80
21C0
40C0
E1E0
ENDCHAR

STARTCHAR Acircumflex
ENCODING 194
SWIDTH 765 0
DWIDTH 11 0
BBX 11 14 0 0
BITMAP
0380
06C0
0000
0300
0300
0700
0580
0980
1980
1180
3F80
21C0
40C0
E1E0
ENDCHAR

STARTCHAR Atilde
ENCODING 195
SWIDTH 765 0
DWIDTH 11 0
BBX 11 13 0 0
BITMAP
0320
04C0
0300
0300
0700
0580
0980
1980
1180
3F80
21C0
40C0
E1E0
ENDCHAR

STARTCHAR Adieresis
ENCODING 196
SWIDTH 765 0
DWIDTH 11 0
BBX 11 13 0 0
BITMAP
06C0
06C0
0300
0300
0700
0580
0980
1980
1180
3F80
21C0
40C0
E1E0
ENDCHAR

STARTCHAR Aring
ENCODING 197
SWIDTH 765 0
DWIDTH 11 0
BBX 11 14 0 0
BITMAP
0380
0280
0380
0300
0300
0700
0580
0980
1980
1180
3F80
21C0
40C0
E1E0
ENDCHAR

STARTCHAR AE
ENCODING 198
SWIDTH 958 0
DWIDTH 13 0
BBX 15 11 0 0
BITMAP
00FE
01C4
03C0
02C0
04C8
09F8
1188
1F80
2180
4388
E7F8
ENDCHAR

STARTCHAR Ccedilla
ENCODING 199
SWIDTH 740 0
DWIDTH 10 0
BBX 10 14 2 -3
BITMAP
0FC0
18C0
3080
6000
E000
C000
C000
C000
E000
6100
3E00
1000
1000
3800
ENDCHAR

STARTCHAR Egrave
ENCODING 200
SWIDTH 630 0
DWIDTH 9 0
BBX 9 14 0 0
BITMAP
0C00
0200
0000
3F80
1880
1800
1800
3100
3E00
3200
3000
3000
6100
FF00
ENDCHAR

STARTCHAR Eacute
ENCODING 201
SWIDTH 630 0
DWIDTH 9 0
BBX 9 14 0 0
BITMAP
0380
0600
0000
3F80
1880
1800
1800
3100
3E00
3200
3000
3000
6100
FF00
ENDCHAR

STARTCHAR Ecircumflex
ENCODING 202
SWIDTH 630 0
DWIDTH 9 0
BBX 9 14 0 0
BITMAP
0700
0D80
0000
3F80
1880
1800
1800
3100
3E00
3200
3000
3000
6100
FF00
ENDCHAR

STARTCHAR Edieresis
ENCODING 203
SWIDTH 630 0
DWIDTH 9 0
BBX 9 13 0 0
BITMAP
0D80
0D80
3F80
1880
1800
1800
3100
3E00
3200
3000
3000
6100
FF00
ENDCHAR

STARTCHAR Igrave
ENCODING 204
SWIDTH 372 0
DWIDTH 5 0
BBX 6 14 0 0
BITMAP
18
0C
00
3C
18
18
18
30
30
30
30
30
60
F0
ENDCHAR

STARTCHAR Iacute
ENCODING 205
SWIDTH 372 0
DWIDTH 5 0
BBX 7 14 0 0
BITMAP
0E
18
00
3C
18
18
18
30
30
30
30
30
60
F0
ENDCHAR

STARTCHAR Icircumflex
ENCODING 206
SWIDTH 372 0
DWIDTH 5 0
BBX 7 14 0 0
BITMAP
1C
36
00
3C
18
18
18
30
30
30
30
30
60
F0
ENDCHAR

STARTCHAR Idieresis
ENCODING 207
SWIDTH 372 0
DWIDTH 5 0
BBX 6 13 0 0
BITMAP
6C
00
3C
18
18
18
30
30
30
30
30
60
F0
ENDCHAR

STARTCHAR Eth
ENCODING 208
SWIDTH 822 0
DWIDTH 12 0
BBX 11 11 0 0
BITMAP
3FC0
18E0
1860
3860
3060
7E60
3060
3060
30C0
7180
FF00
ENDCHAR

STARTCHAR Ntilde
ENCODING 209
SWIDTH 797 0
DWIDTH 11 0
BBX 12 13 0 0
BITMAP
0640
0980
3870
1820
1C20
1C40
2640
2640
2340
2340
21C0
4180
E080
ENDCHAR

STARTCHAR Ograve
ENCODING 210
SWIDTH 831 0
DWIDTH 12 0
BBX 11 14 2 0
BITMAP
0600
0300
0000
0F80
18C0
30E0
6060
6060
C060
C040
C0C0
C180
6300
3C00
ENDCHAR

STARTCHAR Oacute
ENCODING 211
SWIDTH 831 0
DWIDTH 12 0
BBX 11 14 2 0
BITMAP
0380
0600
0000
0F80
18C0
30E0
6060
6060
C060
C040
C0C0
C180
6300
3C00
ENDCHAR

STARTCHAR Ocircumflex
ENCODING 212
SWIDTH 831 0
DWIDTH 12 0
BBX 11 14 2 0
BITMAP
0700
0D80
0000
0F80
18C0
30E0
6060
6060
C060
C0C0
C0C0
C180
6300
3C00
ENDCHAR

STARTCHAR Otilde
ENCODING 213
SWIDTH 831 0
DWIDTH 12 0
BBX 11 13 2 0
BITMAP
0640
0980
0F80
18C0
30E0
6060
6060
C060
C040
C0C0
C180
6300
3C00
ENDCHAR

STARTCHAR Odieresis
ENCODING 214
SWIDTH 831 0
DWIDTH 12 0
BBX 11 13 2 0
BITMAP
0D80
0D80
0F80
18C0
3060
6060
6060
C060
C0C0
C0C0
C180
6300
3C00
ENDCHAR

STARTCHAR multiply
ENCODING 215
SWIDTH 636 0
DWIDTH 9 0
BBX 9 7 1 0
BITMAP
6080
3100
1600
0C00
3400
6200
8100
ENDCHAR

STARTCHAR Oslash
ENCODING 216
SWIDTH 831 0
DWIDTH 12 0
BBX 13 11 2 0
BITMAP
0F98
18E0
30C0
60E0
61E0
C6C0
CCC0
D8C0
F180
6300
FC00
ENDCHAR

STARTCHAR Ugrave
ENCODING 217
SWIDTH 775 0
DWIDTH 11 0
BBX 10 14 2 0
BITMAP
0C00
0200
0000
F9C0
6080
6080
6080
6100
C100
C100
C100
C300
E200
7C00
ENDCHAR

STARTCHAR Uacute
ENCODING 218
SWIDTH 775 0
DWIDTH 11 0
BBX 10 14 2 0
BITMAP
0700
0C00
0000
F9C0
6080
6080
6080
6100
C100
C100
C100
C300
E200
7C00
ENDCHAR

STARTCHAR Ucircumflex
ENCODING 219
SWIDTH 775 0
DWIDTH 11 0
BBX 10 14 2 0
BITMAP
0E00
1B00
0000
F9C0
6080
6080
6080
6100
C100
C100
C100
C300
E200
7C00
ENDCHAR

STARTCHAR Udieresis
ENCODING 220
SWIDTH 775 0
DWIDTH 11 0
BBX 10 13 2 0
BITMAP
1B00
1B00
F9C0
60C0
6080
6080
6080
C180
C180
C100
C300
E200
7C00
ENDCHAR

STARTCHAR Yacute
ENCODING 221
SWIDTH 669 0
DWIDTH 9 0
BBX 10 14 2 0
BITMAP
0700
0C00
0000
F1C0
6180
6100
3200
3400
1800
1800
1000
3000
3000
F800
ENDCHAR

STARTCHAR Thorn
ENCODING 222
SWIDTH 628 0
DWIDTH 9 0
BBX 9 11 0 0
BITMAP
3C00
1800
1F00
1180
3180
3180
3180
3300
3E00
6000
F000
ENDCHAR

STARTCHAR germandbls
ENCODING 223
SWIDTH 656 0
DWIDTH 9 0
BBX 8 14 1 -3
BITMAP
0F
1B
33
32
34
3C
76
63
61
69
6E
E0
C0
C0
ENDCHAR

STARTCHAR agrave
ENCODING 224
SWIDTH 634 0
DWIDTH 9 0
BBX 8 11 1 0
BITMAP
0C
02
00
1F
33
63
66
C6
CE
DE
E7
ENDCHAR

STARTCHAR aacute
ENCODING 225
SWIDTH 634 0
DWIDTH 9 0
BBX 8 11 1 0
BITMAP
07
0C
00
1F
33
63
66
C6
CE
DE
E7
ENDCHAR

STARTCHAR acircumflex
ENCODING 226
SWIDTH 634 0
DWIDTH 9 0
BBX 8 11 1 0
BITMAP
0E
1B
00
1F
33
63
66
C6
CE
DE
E7
ENDCHAR

STARTCHAR atilde
ENCODING 227
SWIDTH 634 0
DWIDTH 9 0
BBX 8 10 1 0
BITMAP
1F
00
1F
33
63
66
C6
CE
DE
E7
ENDCHAR

STARTCHAR adieresis
ENCODING 228
SWIDTH 634 0
DWIDTH 9 0
BBX 8 10 1 0
BITMAP
1A
00
1F
33
63
66
C6
CE
DE
E7
ENDCHAR

STARTCHAR aring
ENCODING 229
SWIDTH 634 0
DWIDTH 9 0
BBX 8 11 1 0
BITMAP
0E
0E
00
1F
33
63
66
C6
CE
DE
E7
ENDCHAR

STARTCHAR ae
ENCODING 230
SWIDTH 905 0
DWIDTH 13 0
BBX 12 8 1 0
BITMAP
1FE0
3330
6330
6660
C7C0
CE00
D710
E3E0
ENDCHAR

STARTCHAR ccedilla
ENCODING 231
SWIDTH 524 0
DWIDTH 7 0
BBX 7 11 1 -3
BITMAP
1E
32
62
C0
C0
C0
E4
78
20
20
70
ENDCHAR

STARTCHAR egrave
ENCODING 232
SWIDTH 548 0
DWIDTH 8 0
BBX 7 11 1 0
BITMAP
18
04
00
1C
26
66
CC
F8
C0
C6
7C
ENDCHAR

STARTCHAR eacute
ENCODING 233
SWIDTH 548 0
DWIDTH 8 0
BBX 8 11 1 0
BITMAP
07
0C
00
1C
26
66
CC
F8
C0
C6
7C
ENDCHAR

STARTCHAR ecircumflex
ENCODING 234
SWIDTH 548 0
DWIDTH 8 0
BBX 7 11 1 0
BITMAP
1C
36
00
1C
26
66
CC
F8
C0
C6
7C
ENDCHAR

STARTCHAR edieresis
ENCODING 235
SWIDTH 548 0
DWIDTH 8 0
BBX 7 10 1 0
BITMAP
1A
00
1C
26
66
CC
F8
C0
C6
7C
ENDCHAR

STARTCHAR igrave
ENCODING 236
SWIDTH 319 0
DWIDTH 4 0
BBX 4 11 1 0
BITMAP
60
10
00
F0
60
60
60
60
C0
C0
E0
ENDCHAR

STARTCHAR iacute
ENCODING 237
SWIDTH 319 0
DWIDTH 4 0
BBX 6 11 1 0
BITMAP
1C
30
00
F0
60
60
60
60
C0
C0
E0
ENDCHAR

STARTCHAR icircumflex
ENCODING 238
SWIDTH 319 0
DWIDTH 4 0
BBX 6 11 1 0
BITMAP
38
6C
00
F0
60
60
60
60
C0
C0
E0
ENDCHAR

STARTCHAR idieresis
ENCODING 239
SWIDTH 319 0
DWIDTH 4 0
BBX 5 10 1 0
BITMAP
68
00
F0
60
60
60
60
C0
C0
E0
ENDCHAR

STARTCHAR eth
ENCODING 240
SWIDTH 617 0
DWIDTH 9 0
BBX 8 11 1 0
BITMAP
3A
0C
16
06
3F
63
C3
C6
C6
EC
78
ENDCHAR

STARTCHAR ntilde
ENCODING 241
SWIDTH 656 0
DWIDTH 9 0
BBX 8 10 1 0
BITMAP
1F
00
F7
6B
73
73
66
C6
C6
C7
ENDCHAR

STARTCHAR ograve
ENCODING 242
SWIDTH 599 0
DWIDTH 8 0
BBX 8 11 1 0
BITMAP
0C
02
00
1E
37
63
C3
C6
C6
CC
78
ENDCHAR

STARTCHAR oacute
ENCODING 243
SWIDTH 599 0
DWIDTH 8 0
BBX 8 11 1 0
BITMAP
07
0C
00
1E
37
63
C3
C6
C6
CC
78
ENDCHAR

STARTCHAR ocircumflex
ENCODING 244
SWIDTH 599 0
DWIDTH 8 0
BBX 8 11 1 0
BITMAP
0E
1B
00
1E
37
63
C3
C6
C6
CC
78
ENDCHAR

STARTCHAR otilde
ENCODING 245
SWIDTH 599 0
DWIDTH 8 0
BBX 8 10 1 0
BITMAP
1F
00
1E
37
63
C3
C6
C6
CC
78
ENDCHAR

STARTCHAR odieresis
ENCODING 246
SWIDTH 599 0
DWIDTH 8 0
BBX 8 10 1 0
BITMAP
1A
00
1E
37
63
C3
C6
C6
CC
78
ENDCHAR

STARTCHAR divide
ENCODING 247
SWIDTH 636 0
DWIDTH 9 0
BBX 8 7 1 1
BITMAP
0C
00
00
FF
00
00
10
ENDCHAR

STARTCHAR oslash
ENCODING 248
SWIDTH 599 0
DWIDTH 8 0
BBX 9 8 1 0
BITMAP
1F80
3700
6700
CF00
DE00
F600
EC00
F800
ENDCHAR

STARTCHAR ugrave
ENCODING 249
SWIDTH 655 0
DWIDTH 9 0
BBX 8 11 1 0
BITMAP
0C
02
00
E7
63
62
66
CE
CE
D6
EF
ENDCHAR

STARTCHAR uacute
ENCODING 250
SWIDTH 655 0
DWIDTH 9 0
BBX 8 11 1 0
BITMAP
07
0C
00
E7
63
62
66
CE
CE
D6
EF
ENDCHAR

STARTCHAR ucircumflex
ENCODING 251
SWIDTH 655 0
DWIDTH 9 0
BBX 8 11 1 0
BITMAP
0E
1B
00
E7
63
62
66
CE
CE
D6
EF
ENDCHAR

STARTCHAR udieresis
ENCODING 252
SWIDTH 655 0
DWIDTH 9 0
BBX 8 10 1 0
BITMAP
1A
00
E7
63
62
66
CE
CE
D6
EF
ENDCHAR

STARTCHAR yacute
ENCODING 253
SWIDTH 586 0
DWIDTH 8 0
BBX 10 14 0 -3
BITMAP
0380
0600
0000
71C0
1880
1980
1900
1A00
1C00
1C00
0800
1000
2000
E000
ENDCHAR

STARTCHAR thorn
ENCODING 254
SWIDTH 639 0
DWIDTH 9 0
BBX 9 13 1 -3
BITMAP
7000
3000
3700
3980
3980
7300
6300
6200
6600
7800
C000
C000
C000
ENDCHAR

STARTCHAR ydieresis
ENCODING 255
SWIDTH 586 0
DWIDTH 8 0
BBX 10 13 0 -3
BITMAP
0D00
0000
71C0
1880
1980
1900
1A00
1C00
1C00
0800
1000
2000
E000
ENDCHAR
ENDFONT
